<svg width="16" height="16" viewBox="0 0 16 16" xmlns="http://www.w3.org/2000/svg">
    <defs>
        <linearGradient id="bugGradient" x1="0%" y1="0%" x2="100%" y2="100%">
            <stop offset="0%" style="stop-color:#FF6B6B;stop-opacity:1" />
            <stop offset="100%" style="stop-color:#FF4757;stop-opacity:1" />
        </linearGradient>
    </defs>

    <!-- Bug body -->
    <ellipse cx="8" cy="9" rx="5" ry="4" fill="url(#bugGradient)" stroke="#C44569" stroke-width="0.5"/>

    <!-- Bug head -->
    <circle cx="8" cy="4" r="2.5" fill="url(#bugGradient)" stroke="#C44569" stroke-width="0.5"/>

    <!-- Bug eyes -->
    <circle cx="7.2" cy="3.5" r="0.4" fill="white"/>
    <circle cx="8.8" cy="3.5" r="0.4" fill="white"/>
    <circle cx="7.2" cy="3.5" r="0.2" fill="black"/>
    <circle cx="8.8" cy="3.5" r="0.2" fill="black"/>

    <!-- Bug antennae -->
    <line x1="6.5" y1="2.5" x2="5.5" y2="1.5" stroke="#C44569" stroke-width="0.8" stroke-linecap="round"/>
    <line x1="9.5" y1="2.5" x2="10.5" y2="1.5" stroke="#C44569" stroke-width="0.8" stroke-linecap="round"/>
    <circle cx="5.5" cy="1.5" r="0.3" fill="#C44569"/>
    <circle cx="10.5" cy="1.5" r="0.3" fill="#C44569"/>

    <!-- Bug legs -->
    <line x1="4" y1="7" x2="2" y2="8" stroke="#C44569" stroke-width="0.8" stroke-linecap="round"/>
    <line x1="4" y1="9" x2="2" y2="10" stroke="#C44569" stroke-width="0.8" stroke-linecap="round"/>
    <line x1="4" y1="11" x2="2" y2="12" stroke="#C44569" stroke-width="0.8" stroke-linecap="round"/>

    <line x1="12" y1="7" x2="14" y2="8" stroke="#C44569" stroke-width="0.8" stroke-linecap="round"/>
    <line x1="12" y1="9" x2="14" y2="10" stroke="#C44569" stroke-width="0.8" stroke-linecap="round"/>
    <line x1="12" y1="11" x2="14" y2="12" stroke="#C44569" stroke-width="0.8" stroke-linecap="round"/>

    <!-- Bug spots -->
    <circle cx="7" cy="8" r="0.5" fill="#FF3838" opacity="0.8"/>
    <circle cx="9.5" cy="9.5" r="0.4" fill="#FF3838" opacity="0.8"/>
    <circle cx="6.5" cy="10.5" r="0.3" fill="#FF3838" opacity="0.8"/>
</svg>