<?xml version="1.0" standalone="no"?><!DOCTYPE svg PUBLIC "-//W3C//DTD SVG 1.1//EN" "http://www.w3.org/Graphics/SVG/1.1/DTD/svg11.dtd"><svg t="1752500810293" class="icon" viewBox="0 0 1024 1024" version="1.1" xmlns="http://www.w3.org/2000/svg" p-id="7641" xmlns:xlink="http://www.w3.org/1999/xlink" width="16" height="16"><path d="M393.6 661.952l24.128 144.512-94.336 17.92-23.04-138.112 93.312-24.32z m90.24-131.968l230.208 98.688-33.472 90.048-231.424-99.2 34.688-89.536z m201.792-226.944l38.272 88.064-233.408 100.032L451.968 403.2l233.664-100.16zM323.904 196.608l95.488 11.072-26.304 157.824-94.72-15.744 25.536-153.152z" fill="#AEB0B3" p-id="7642"></path><path d="M384 768a128 128 0 1 1 0 256 128 128 0 0 1 0-256z m0 96a32 32 0 1 0 0 64 32 32 0 0 0 0-64zM768 576a128 128 0 1 1 0 256 128 128 0 0 1 0-256z m0 96a32 32 0 1 0 0 64 32 32 0 0 0 0-64z m-448-384l12.288 0.32a224 224 0 1 1-24.576 0L320 288z m0 128c-52.928 0-96 43.072-96 96S267.072 608 320 608 416 564.928 416 512 372.928 416 320 416zM768 192a128 128 0 1 1 0 256 128 128 0 0 1 0-256z m0 96a32 32 0 1 0 0 64 32 32 0 0 0 0-64zM384 0a128 128 0 1 1 0 256 128 128 0 0 1 0-256z m0 96a32 32 0 1 0 0 64 32 32 0 0 0 0-64z" fill="#7C7E81" p-id="7643"></path></svg>