<svg t="1760866307803" class="icon" viewBox="0 0 1024 1024" version="1.1" xmlns="http://www.w3.org/2000/svg" p-id="15548" width="16" height="16"><path d="M957.3 731.2c-0.8-1.1-1.8-2.1-2.9-2.9L759.7 584c-6.1-4.5-14.7-3.2-19.2 2.9-1.7 2.4-2.7 5.2-2.7 8.2v288.5c0 7.6 6.1 13.7 13.7 13.7 2.9 0 5.8-0.9 8.2-2.7l194.8-144.3c6-4.5 7.3-13.1 2.8-19.1zM427.3 646.6c0-45.7-20.1-73-51.7-73s-51.7 27.3-51.7 73c0 47.7 20.1 76.4 51.7 76.4s51.7-28.7 51.7-76.4z" fill="#2E97E5" p-id="15549"></path><path d="M865 605.7c7.6 0 13.7-6.2 13.7-13.8V126.1c-0.1-47.3-38.5-85.6-85.8-85.8H149.8c-47.3 0.1-85.6 38.5-85.8 85.8v771.8c0.1 47.3 38.5 85.6 85.8 85.8h545V510.1c0-2.9 0.9-5.8 2.7-8.2 4.5-6.1 13.1-7.4 19.2-2.9l140.1 104c2.4 1.8 5.3 2.7 8.2 2.7zM175.5 757.8c-28.4 0-56.9-11.2-77.6-31l24.4-29.3c15.2 14.1 35.3 23.6 54 23.6 22.1 0 33.9-9.5 33.9-24.4 0-15.8-12.9-20.7-31.9-28.7l-28.4-12.1c-21.5-8.9-43.1-26.1-43.1-57.2 0-34.7 30.5-61.5 73.5-61.5 24.7 0 49.4 9.8 66.7 27.3l-21.5 26.7c-13.5-11.2-27.6-17.5-45.1-17.5-18.7 0-30.7 8.3-30.7 22.4 0 15.2 15.2 20.7 33.3 27.9l27.9 11.8c25.9 10.6 42.8 27 42.8 57.7-0.1 34.7-29.1 64.3-78.2 64.3z m-37.4-434.6c-0.3-11.8 9.1-21.6 21-21.9h233c11.8 0 21.4 9.6 21.4 21.4 0 11.8-9.6 21.4-21.4 21.4h-233c-11.5-0.2-20.8-9.4-21-20.9z m306.2 488.3c-43.4 0-73.5-23.3-88.2-55.4-45.4-8.6-75.6-48.8-75.6-109.4 0-69.2 38.8-109.4 95.1-109.4s95.1 40.5 95.1 109.4c0 58-27.6 97.1-69.8 108 9.8 16.1 29 22.7 48.3 22.7 9.2 0 17.2-1.4 23.3-3.4l7.5 31.3c-7.3 3.3-20.2 6.2-35.7 6.2z m33.5-565.2H159.1c-11.8-0.3-21.2-10.1-21-21.9 0.2-11.5 9.5-20.7 21-21h318.8c11.8 0.3 21.2 10.1 21 21.9-0.3 11.6-9.6 20.8-21.1 21z m163.1 507.5H512.2V541.2h42.5v176.9h86.2v35.7z" fill="#2E97E5" p-id="15550"></path></svg>