<svg t="1760855199829" class="icon" viewBox="0 0 1024 1024" version="1.1" xmlns="http://www.w3.org/2000/svg" p-id="18222" width="16" height="16"><path d="M191.146667 60.245333h516.266666a42.666667 42.666667 0 0 1 30.293334 12.629334l135.509333 136.362666a42.666667 42.666667 0 0 1 12.373333 30.08V917.333333a42.666667 42.666667 0 0 1-42.666666 42.666667H191.146667a42.666667 42.666667 0 0 1-42.666667-42.666667V102.912a42.666667 42.666667 0 0 1 42.666667-42.666667z" fill="#FFFFFF" p-id="18223"></path><path d="M685.781333 85.333333H170.666667v853.333334h682.666666V255.829333h-103.552a64 64 0 0 1-64-64V85.333333z m42.666667 10.666667v95.829333a21.333333 21.333333 0 0 0 21.333333 21.333334H844.8L728.448 96zM170.666667 42.666667h547.157333a42.666667 42.666667 0 0 1 30.250667 12.586666l135.509333 136.405334a42.666667 42.666667 0 0 1 12.416 30.08V938.666667a42.666667 42.666667 0 0 1-42.666667 42.666666H170.666667a42.666667 42.666667 0 0 1-42.666667-42.666666V85.333333a42.666667 42.666667 0 0 1 42.666667-42.666666z" fill="#5D6D7E" p-id="18224"></path><path d="M682.666667 426.666667h-42.666667V384H384v170.666667h42.666667v42.666666H384a42.666667 42.666667 0 0 1-42.666667-42.666666V384a42.666667 42.666667 0 0 1 42.666667-42.666667h256a42.666667 42.666667 0 0 1 42.666667 42.666667v42.666667z" fill="#2FAF9A" p-id="18225"></path><path d="M469.333333 426.666667h256a42.666667 42.666667 0 0 1 42.666667 42.666666v106.666667h-341.333333V469.333333a42.666667 42.666667 0 0 1 42.666666-42.666666z" fill="#EF633F" p-id="18226"></path><path d="M128 469.333333v85.333334H42.666667l85.333333-85.333334z m768 0l85.333333 85.333334h-85.333333v-85.333334z" fill="#1582B8" p-id="18227"></path><path d="M597.333333 341.333333h-42.666666V298.666667H298.666667v170.666666h42.666666v42.666667H298.666667a42.666667 42.666667 0 0 1-42.666667-42.666667V298.666667a42.666667 42.666667 0 0 1 42.666667-42.666667h256a42.666667 42.666667 0 0 1 42.666666 42.666667v42.666666zM42.666667 554.666667h938.666666v341.333333H42.666667v-341.333333z m208.170666 198.912c2.602667 22.186667 10.666667 39.082667 24.106667 50.688 13.44 11.605333 32.725333 17.408 57.813333 17.408 17.237333 0 31.658667-2.432 43.221334-7.253334a58.453333 58.453333 0 0 0 36.266666-54.101333c0-12.544-2.645333-23.04-7.936-31.573333a55.765333 55.765333 0 0 0-21.930666-20.224c-9.344-4.906667-23.765333-9.685333-43.264-14.293334-19.498667-4.565333-31.786667-9.002667-36.821334-13.226666a15.232 15.232 0 0 1-5.973333-12.074667c0-5.12 2.133333-9.258667 6.4-12.330667 6.570667-4.778667 15.701333-7.168 27.306667-7.168 11.306667 0 19.754667 2.218667 25.429333 6.698667 5.632 4.48 9.301333 11.818667 11.008 22.016l40.106667-1.749333c-0.64-18.261333-7.253333-32.853333-19.84-43.776-12.586667-10.922667-31.36-16.384-56.277334-16.384-15.232 0-28.288 2.304-39.082666 6.912a53.845333 53.845333 0 0 0-24.746667 20.138666 51.029333 51.029333 0 0 0-8.618667 28.330667c0 15.744 6.101333 29.013333 18.304 39.978667 8.661333 7.765333 23.722667 14.293333 45.226667 19.626666 16.682667 4.138667 27.392 7.04 32.085333 8.661334 6.826667 2.432 11.648 5.290667 14.421334 8.618666 2.730667 3.285333 4.138667 7.253333 4.138666 11.946667 0 7.338667-3.285333 13.738667-9.813333 19.2-6.570667 5.461333-16.298667 8.192-29.184 8.192-12.202667 0-21.888-3.072-29.056-9.216-7.168-6.144-11.946667-15.786667-14.293333-28.842667l-38.997334 3.797334z m354.944 39.381333c7.936-9.301333 13.696-18.901333 17.322667-28.842667 4.778667-13.013333 7.168-28.074667 7.168-45.226666 0-32.426667-8.618667-57.6-25.856-75.605334-17.237333-18.048-40.576-27.050667-70.016-27.050666-29.696 0-53.205333 9.002667-70.570667 27.050666-17.322667 18.005333-25.984 43.221333-25.984 75.605334 0 32.512 8.661333 57.728 25.941334 75.690666 17.28 17.962667 41.173333 26.965333 71.68 26.965334a106.666667 106.666667 0 0 0 43.221333-8.533334c16.512 11.093333 25.386667 16.981333 26.666667 17.621334 5.76 3.157333 11.690667 5.632 17.749333 7.424l14.762667-28.288a130.986667 130.986667 0 0 1-32.085334-16.810667z m-32.256-22.613333a136.149333 136.149333 0 0 0-37.76-20.309334l-11.264 22.869334c8.405333 2.986667 16.64 7.168 24.789334 12.458666-5.12 1.92-10.624 2.858667-16.384 2.858667-15.530667 0-28.373333-5.76-38.528-17.28s-15.232-28.842667-15.232-52.053333c0-22.826667 5.077333-39.936 15.232-51.328 10.154667-11.349333 23.424-17.066667 39.765333-17.066667s29.568 5.674667 39.68 17.024c10.069333 11.306667 15.146667 28.458667 15.146667 51.370667 0 11.093333-1.28 20.949333-3.84 29.525333-2.56 8.576-6.442667 15.872-11.605334 21.930667z m89.258667 47.786666h139.733333v-33.408h-99.669333V621.226667h-40.106667v196.906666z" fill="#3B97D3" p-id="18228"></path></svg>