<?xml version="1.0" standalone="no"?><!DOCTYPE svg PUBLIC "-//W3C//DTD SVG 1.1//EN" "http://www.w3.org/Graphics/SVG/1.1/DTD/svg11.dtd"><svg t="1752500977015" class="icon" viewBox="0 0 1512 1024" version="1.1" xmlns="http://www.w3.org/2000/svg" p-id="12549" xmlns:xlink="http://www.w3.org/1999/xlink" width="16" height="16"><path d="M302.545455 663.272727c-23.272727 69.818182-46.545455 151.272727-81.454546 232.727273 0 11.636364-11.636364 23.272727-23.272727 23.272727-23.272727 0-23.272727-11.636364-23.272727-23.272727-23.272727-81.454545-46.545455-151.272727-69.818182-221.090909 0-11.636364 0-11.636364-11.636364-23.272727C81.454545 733.090909 81.454545 814.545455 81.454545 896v11.636364c0 11.636364-11.636364 11.636364-23.272727 11.636363s-23.272727 0-23.272727-11.636363v-11.636364c0-93.090909 11.636364-197.818182 23.272727-290.909091C46.545455 581.818182 58.181818 581.818182 81.454545 581.818182c46.545455 0 46.545455 0 58.181819 46.545454l58.181818 174.545455c0 11.636364 0 11.636364 11.636363 11.636364l69.818182-209.454546c11.636364-23.272727 23.272727-23.272727 58.181818-23.272727 23.272727 0 11.636364 23.272727 23.272728 34.909091 11.636364 93.090909 23.272727 186.181818 23.272727 279.272727 0 11.636364 0 23.272727-23.272727 23.272727s-34.909091 0-34.909091-23.272727c0-69.818182 0-139.636364-11.636364-209.454545 0-11.636364-11.636364-23.272727-11.636363-23.272728zM1361.454545 500.363636c34.909091 34.909091 81.454545 46.545455 93.09091 81.454546-34.909091-23.272727-81.454545-46.545455-116.363637-69.818182-23.272727-23.272727-23.272727-34.909091 11.636364-46.545455h46.545454c11.636364 0 23.272727 0 34.909091-11.636363-23.272727-23.272727-58.181818-46.545455-93.090909-58.181818-23.272727 0-46.545455-23.272727-58.181818-46.545455-11.636364-34.909091-23.272727-58.181818-34.909091-93.090909-23.272727-69.818182-81.454545-128-151.272727-174.545455h-23.272727C1024 93.090909 977.454545 69.818182 930.909091 46.545455h-23.272727v23.272727c46.545455 46.545455 46.545455 116.363636 93.090909 162.909091 11.636364 11.636364 0 23.272727 0 34.909091-11.636364 34.909091-11.636364 81.454545 0 128 0 11.636364 0 23.272727 11.636363 11.636363 11.636364 0 11.636364-11.636364 11.636364-23.272727s11.636364-34.909091 23.272727-46.545455c11.636364 46.545455 34.909091 81.454545 58.181818 116.363637-23.272727-11.636364-46.545455-46.545455-58.181818-81.454546v46.545455c0 11.636364-11.636364 23.272727-11.636363 23.272727-11.636364 0-23.272727 0-23.272728-11.636363-34.909091-23.272727-46.545455-58.181818-46.545454-81.454546 0-23.272727 0-58.181818 11.636363-81.454545V232.727273c-11.636364-11.636364-11.636364-23.272727-23.272727-46.545455-11.636364-34.909091-23.272727-69.818182-58.181818-104.727273-11.636364-11.636364-11.636364-34.909091 0-46.545454 11.636364-11.636364 34.909091-23.272727 46.545455-11.636364 81.454545 46.545455 186.181818 46.545455 244.363636 128 34.909091 34.909091 58.181818 69.818182 81.454545 116.363637l11.636364 34.909091c11.636364 46.545455 46.545455 81.454545 93.090909 104.727272 23.272727 11.636364 58.181818 23.272727 81.454546 58.181818 11.636364 11.636364 11.636364 23.272727-11.636364 23.272728s-46.545455 0-81.454546 11.636363z" fill="#30748C" p-id="12550"></path><path d="M768 581.818182c23.272727 0 34.909091 0 58.181818 11.636363 11.636364 0 23.272727 0 11.636364 23.272728 0 23.272727-11.636364 11.636364-23.272727 11.636363-23.272727-11.636364-46.545455-11.636364-69.818182-11.636363-23.272727 0-34.909091 11.636364-34.909091 34.909091 0 11.636364 0 34.909091 11.636363 46.545454 11.636364 0 23.272727 11.636364 34.909091 23.272727l58.181819 23.272728c34.909091 11.636364 58.181818 46.545455 46.545454 81.454545 0 34.909091-34.909091 69.818182-69.818182 81.454546-46.545455 23.272727-93.090909 11.636364-128-11.636364-11.636364 0-11.636364-11.636364-11.636363-23.272727s11.636364-11.636364 23.272727-11.636364c23.272727 11.636364 46.545455 23.272727 58.181818 23.272727 23.272727 0 46.545455-11.636364 58.181818-34.909091 11.636364-23.272727 0-46.545455-34.909091-58.181818l-46.545454-46.545454c-46.545455-11.636364-69.818182-58.181818-58.181818-104.727273 23.272727-46.545455 69.818182-69.818182 116.363636-58.181818z" fill="#E49439" p-id="12551"></path><path d="M523.636364 872.727273c23.272727-46.545455 34.909091-104.727273 46.545454-151.272728V698.181818c0-34.909091 11.636364-34.909091 46.545455-34.909091 11.636364 0 11.636364 0 11.636363 11.636364-23.272727 104.727273-58.181818 186.181818-104.727272 267.636364-23.272727 46.545455-58.181818 69.818182-104.727273 58.181818-11.636364 0-23.272727 0-23.272727-23.272728s0-11.636364 11.636363-11.636363c58.181818 0 69.818182-23.272727 58.181818-81.454546-11.636364-46.545455-34.909091-128-58.181818-197.818181 0-23.272727 0-23.272727 11.636364-23.272728 23.272727 0 46.545455 11.636364 46.545454 34.909091v11.636364c23.272727 46.545455 34.909091 104.727273 58.181819 162.909091z" fill="#30748C" p-id="12552"></path><path d="M1198.545455 744.727273V605.090909c0-23.272727 11.636364-23.272727 34.90909-23.272727s23.272727 0 23.272728 23.272727v244.363636c0 23.272727 0 23.272727 23.272727 23.272728h58.181818c23.272727 0 23.272727 0 23.272727 23.272727s-11.636364 23.272727-23.272727 23.272727h-116.363636c-23.272727 0-23.272727 0-23.272727-23.272727V744.727273z" fill="#E49339" p-id="12553"></path><path d="M1000.727273 116.363636c23.272727 0 34.909091 11.636364 23.272727 34.909091L1000.727273 116.363636z" fill="#397A90" p-id="12554"></path><path d="M1140.363636 907.636364l-23.272727-11.636364c-11.636364 0-11.636364-11.636364 0-11.636364 23.272727-34.909091 46.545455-93.090909 34.909091-139.636363 0-23.272727 0-58.181818-11.636364-81.454546 0-46.545455-34.909091-81.454545-81.454545-81.454545-46.545455-11.636364-104.727273 0-139.636364 46.545454-34.909091 58.181818-46.545455 128-23.272727 186.181819 0 58.181818 58.181818 104.727273 116.363636 93.090909h11.636364c34.909091 0 69.818182 11.636364 93.090909 23.272727l23.272727 11.636364h11.636364s11.636364-23.272727-11.636364-34.909091z m-58.181818-69.818182c-11.636364 23.272727-34.909091 46.545455-58.181818 34.909091-23.272727 0-58.181818-11.636364-58.181818-34.909091-23.272727-58.181818-23.272727-128 0-186.181818 11.636364-23.272727 34.909091-46.545455 69.818182-34.909091 23.272727 0 46.545455 11.636364 58.181818 46.545454 11.636364 34.909091 11.636364 58.181818 11.636363 93.090909 0 23.272727-11.636364 58.181818-23.272727 81.454546zM1396.363636 884.363636h11.636364v34.909091h11.636364v-34.909091h11.636363v-11.636363H1396.363636zM1477.818182 872.727273l-11.636364 23.272727-23.272727-23.272727v46.545454-23.272727l11.636364 23.272727h11.636363l11.636364-23.272727v23.272727h11.636363v-46.545454z" fill="#E49439" p-id="12555"></path></svg>