<?xml version="1.0" standalone="no"?><!DOCTYPE svg PUBLIC "-//W3C//DTD SVG 1.1//EN" "http://www.w3.org/Graphics/SVG/1.1/DTD/svg11.dtd"><svg t="1752501152051" class="icon" viewBox="0 0 1024 1024" version="1.1" xmlns="http://www.w3.org/2000/svg" p-id="17463" xmlns:xlink="http://www.w3.org/1999/xlink" width="16" height="16"><path d="M991.04 406.08H617.92V32.96c0-9.28-3.2-17.28-9.6-23.36s-14.08-9.6-23.36-9.6h-145.92c-9.28 0-17.28 3.2-23.36 9.6-6.4 6.4-9.6 14.08-9.6 23.36v373.12h-195.2V32.96c0-9.28-3.2-17.28-9.6-23.36-6.08-6.4-13.76-9.6-22.4-9.6H32.96C23.68 0 15.68 3.2 9.6 9.6s-9.6 14.08-9.6 23.36v958.08c0 9.28 3.2 17.28 9.6 23.36s14.08 9.6 23.36 9.6h958.08c9.28 0 17.28-3.2 23.36-9.6 6.4-6.4 9.6-14.08 9.6-23.36V439.04c0-9.28-3.2-17.28-9.6-23.36-6.4-6.4-14.08-9.6-23.36-9.6zM816 782.08c0 8.64-3.2 16-9.6 22.4-6.4 6.4-13.76 9.6-22.4 9.6h-134.08c-8.64 0-16-3.2-22.4-9.6s-9.6-13.76-9.6-22.4v-134.08c0-9.28 3.2-17.28 9.6-23.36 6.4-6.4 13.76-9.6 22.4-9.6h134.08c8.64 0 16 3.2 22.4 9.6 6.4 6.4 9.6 14.08 9.6 23.36v134.08z" fill="#FF6600" p-id="17464"></path></svg>