<?xml version="1.0" standalone="no"?><!DOCTYPE svg PUBLIC "-//W3C//DTD SVG 1.1//EN" "http://www.w3.org/Graphics/SVG/1.1/DTD/svg11.dtd"><svg t="1752501245201" class="icon" viewBox="0 0 1024 1024" version="1.1" xmlns="http://www.w3.org/2000/svg" p-id="20870" xmlns:xlink="http://www.w3.org/1999/xlink" width="16" height="16"><path d="M492.458667 240.576c-34.837333-52.245333-42.368-122.069333-44.010667-150.762667-88.490667 19.136-176.405333 53.461333-171.328 78.741334 0.64 3.178667 4.650667 6.997333 11.306667 10.709333l-10.410667 18.624c-12.714667-7.125333-19.861333-15.338667-21.802667-25.152-5.738667-28.608 26.666667-54.485333 99.029334-79.125333a899.242667 899.242667 0 0 1 101.354666-27.285334l12.736-2.56V76.8c0 0.896 0.554667 91.477333 40.874667 151.957333l-17.749333 11.818667zM528.021333 917.333333H522.666667c-174.762667 0-369.258667-54.890667-392.234667-146.752-14.016-56.106667 31.829333-118.101333 132.565333-179.221333l11.093334 18.218667c-90.645333 55.018667-134.314667 110.336-122.944 155.84 19.946667 79.744 204.266667 129.450667 365.930666 130.56 19.221333-28.736 122.496-197.546667 63.552-423.957334l20.629334-5.376c67.178667 257.962667-68.650667 444.522667-70.016 446.378667l-3.221334 4.309333z" fill="#CFD8DC" p-id="20871"></path><path d="M211.861333 838.528c-11.498667 0-17.194667-1.258667-18.133333-1.493333a10.624 10.624 0 0 1-4.970667-17.92c1.536-1.536 153.536-153.770667 174.058667-276.864l21.034667 3.498666c-17.642667 105.898667-121.92 226.624-163.328 271.082667 41.365333-2.368 145.813333-21.738667 346.325333-133.973333-156.48-17.152-181.226667-142.421333-181.482667-143.765334l20.970667-3.861333c1.002667 5.248 26.154667 128.234667 197.205333 128.234667h0.170667a10.666667 10.666667 0 1 1 5.354667 19.904c-239.68 138.858667-355.904 155.136-397.205334 155.157333z" fill="#CFD8DC" p-id="20872"></path><path d="M309.845333 889.6a10.645333 10.645333 0 0 1-6.208-19.349333c0.725333-0.533333 38.677333-28.544 79.061334-90.197334a424.448 424.448 0 0 1-46.848-24.256c-18.944-11.370667-33.258667-23.573333-43.946667-36.074666-54.826667 14.464-105.429333 20.181333-149.866667 16.405333l1.792-21.248c40.021333 3.392 85.525333-1.344 134.848-13.653333-33.557333-57.344-2.752-114.261333-2.325333-115.029334l18.645333 10.389334c-1.429333 2.602667-26.986667 50.56 5.312 98.837333 46.954667-13.482667 97.045333-33.429333 148.885334-59.349333a686.698667 686.698667 0 0 0 26.133333-133.888 10.688 10.688 0 0 1 15.061333-8.661334c0.682667 0.32 69.632 31.808 119.552 52.352a10.666667 10.666667 0 0 1 1.941334 18.688 1333.205333 1333.205333 0 0 1-144.597334 86.229334 580.053333 580.053333 0 0 1-52.458666 119.274666c78.976 29.504 147.52 29.952 148.394666 29.952a10.666667 10.666667 0 0 1 5.184 20.010667c-96.853333 53.802667-251.029333 68.949333-257.536 69.568h-1.024z m93.546667-100.970667c-22.186667 34.432-43.989333 59.157333-60.288 75.306667 42.624-6.272 117.354667-20.010667 179.370667-45.632a506.304 506.304 0 0 1-119.082667-29.674667z m-88.362667-75.434666c8.384 8.362667 18.837333 16.533333 31.786667 24.32 15.701333 9.429333 31.637333 17.429333 47.36 24.213333a557.141333 557.141333 0 0 0 45.696-97.450667c-43.114667 20.522667-84.970667 36.906667-124.842667 48.917334z m179.946667-194.176a724.266667 724.266667 0 0 1-19.477333 103.466666 1332.266667 1332.266667 0 0 0 107.989333-64.554666 4418.133333 4418.133333 0 0 1-88.512-38.912zM382.378667 226.133333a10.752 10.752 0 0 1-6.933334-2.56c-34.346667-29.397333-74.773333-89.216-76.48-91.754666a10.666667 10.666667 0 0 1 13.952-15.317334c0.234667 0.064 20.010667 8.213333 153.962667 30.528a10.645333 10.645333 0 0 1 6.186667 17.664c-37.504 41.664-84.885333 60.010667-86.890667 60.757334a11.242667 11.242667 0 0 1-3.797333 0.682666z m-48.576-82.218666c13.461333 18.112 32.853333 42.581333 50.602666 59.072a238.634667 238.634667 0 0 0 58.538667-38.357334c-55.104-9.408-88.725333-16.106667-109.141333-20.714666z" fill="#CFD8DC" p-id="20873"></path><path d="M465.984 520.533333a10.666667 10.666667 0 0 1-10.602667-11.776c6.229333-58.645333-83.754667-82.176-84.672-82.389333a10.666667 10.666667 0 0 1-4.906666-17.877333c4.416-4.416 109.632-108.757333 241.642666-166.058667a10.666667 10.666667 0 0 1 14.698667 11.925333c-25.301333 122.538667-143.146667 256.938667-148.138667 262.592a10.88 10.88 0 0 1-8.021333 3.584z m-72.277333-109.12c25.258667 9.493333 69.504 31.466667 80.704 71.594667 30.912-38.570667 96.896-127.424 121.536-211.925333-93.589333 45.013333-172.394667 112.896-202.24 140.330666z" fill="#B71C1C" p-id="20874"></path><path d="M279.018667 605.013333l-10.133334-18.773333c40.170667-21.653333 86.186667-61.504 123.882667-107.818667-32.085333 21.973333-50.453333 37.013333-51.029333 37.504l-13.632-16.426666c0.832-0.682667 37.632-30.869333 98.794666-68.693334 16.789333-27.008 29.696-54.784 36.330667-81.408 1.130667-4.522667 2.112-8.896 2.901333-13.12-41.066667-14.656-78.954667-23.338667-104.981333-27.072a10.666667 10.666667 0 0 1-6.336-17.813333c1.813333-1.962667 45.141333-48.384 99.285333-73.877333a10.666667 10.666667 0 0 1 12.394667 2.432c1.429333 1.557333 30.72 34.453333 23.274667 102.506666 24.64 9.6 50.026667 21.269333 74.474666 35.157334 58.858667-26.453333 125.696-50.261333 196.885334-64.64a10.88 10.88 0 0 1 10.261333 3.584c2.496 2.986667 3.178667 7.104 1.770667 10.730666-27.733333 71.082667-102.101333 147.008-105.258667 150.208a10.730667 10.730667 0 0 1-15.957333-0.853333c-23.893333-30.037333-55.125333-54.912-88.810667-75.157333a1176.234667 1176.234667 0 0 0-121.258667 65.045333c-43.093333 67.264-108.138667 129.024-162.858666 158.485333z m307.477333-233.898666c27.52 17.749333 53.141333 38.613333 74.325333 62.890666 17.664-19.157333 60.053333-67.584 84.096-115.669333-56.533333 13.013333-110.037333 31.850667-158.421333 52.778667z m-100.117333-27.178667c-0.704 3.477333-1.514667 7.04-2.410667 10.666667-4.48 17.898667-11.605333 36.288-20.736 54.634666a1198.570667 1198.570667 0 0 1 77.184-40.490666 543.488 543.488 0 0 0-54.037333-24.810667z m-101.354667-52.266667c23.701333 4.650667 52.906667 12.245333 84.074667 23.168 3.242667-39.317333-7.381333-63.402667-13.802667-74.069333-29.354667 15.317333-55.061333 36.864-70.272 50.901333z" fill="#B71C1C" p-id="20875"></path><path d="M385.066667 394.666667c0 93.44-77.866667 167.68-133.973334 221.866666-9.386667 9.173333-41.173333 10.666667-41.173333 10.666667 7.893333-8.106667 16.853333-16.64 26.453333-25.813333 53.333333-51.626667 127.36-122.24 127.36-206.72 0-100.053333-40.32-139.52-72.106666-171.093334-14.08-14.293333-26.026667-27.946667-33.28-44.586666l6.613333-2.773334c7.253333 3.2 15.573333 6.826667 21.973333 9.6 5.12 7.466667 11.946667 14.72 19.84 22.613334 32.64 32.64 78.293333 77.44 78.293334 186.24z" fill="#B71C1C" p-id="20876"></path><path d="M915.946667 422.272s-12.906667 1.834667-16.533334 2.261333c-186.88 20.693333-379.733333 74.453333-490.026666 118.613334-39.893333 16-81.28 35.413333-119.04 57.173333-0.213333 0.213333-0.426667 0.213333-0.853334 0.426667-22.186667 12.8-76.16 39.253333-119.893333 62.506666 64-68.053333 183.893333-120.533333 231.68-139.733333 108.16-43.306667 293.973333-95.573333 476.8-117.973333-21.546667-25.173333-74.24-78.506667-177.92-118.186667-60.586667-23.466667-152.746667-36.693333-234.026667-48.426667-129.28-18.56-202.88-30.933333-209.92-66.133333-1.493333-7.04-0.426667-14.08 2.773334-20.906667 7.04 11.52 17.066667 19.626667 23.68 24.32 3.2 2.133333 5.546667 3.413333 6.4 3.84l0.213333 0.213334c30.293333 16 112 27.733333 180.053333 37.546666 82.346667 11.946667 175.573333 25.386667 238.506667 49.493334 146.56 56.533333 197.12 137.386667 199.253333 140.8 1.92 3.2 8.853333 14.165333 8.853334 14.165333z" fill="#B71C1C" p-id="20877"></path></svg>